Coordinates
version=1
nRows=12
nColumns=23
inDegrees=yes

Units are S.I. units (second, meters, Newtons, ...)
If the header above contains a line with 'inDegrees', this indicates whether rotational values are in degrees (yes) or radians (no).

endheader
time	pelvis_tilt	pelvis_list	pelvis_rotation	pelvis_tx	pelvis_ty	pelvis_tz	hip_flexion_r	hip_adduction_r	hip_rotation_r	knee_angle_r	knee_angle_r_beta	ankle_angle_r	subtalar_angle_r	mtp_angle_r	hip_flexion_l	hip_adduction_l	hip_rotation_l	knee_angle_l	knee_angle_l_beta	ankle_angle_l	subtalar_angle_l	mtp_angle_l
      0.00000000	      0.92826420	     -9.01680743	      0.60856812	      2.26950972	      1.08247510	      1.00680782	     14.74258955	     11.49685439	    -10.78484232	     10.23787579	      0.17868464	     11.24423823	     11.87688242	      0.00000000	    -14.22091831	    -17.38762646	    -18.13986234	     44.94111368	      0.78437040	     -7.88390114	     -8.54140202	      0.00000000
      0.00666667	      1.92339833	     -9.47186588	      0.43398226	      2.26881706	      1.07881047	      1.00757610	     13.82642261	     12.03589727	    -10.61466586	     11.81947409	      0.20628874	     10.22232651	     11.23551590	      0.00000000	    -14.52918567	    -18.13117827	    -17.84124652	     47.33845859	      0.82621197	     -7.22600022	     -9.99788436	      0.00000000
      0.01333333	      2.29287064	     -9.85848962	      0.41182473	      2.26782361	      1.07423557	      1.00810539	     13.65902936	     12.45697004	    -10.41996856	     13.48410630	      0.23534205	      9.36723496	      9.82284987	      0.00000000	    -13.91359794	    -18.77637753	    -16.96828285	     49.94407915	      0.87168862	     -6.68981559	    -11.96298247	      0.00000000
      0.02000000	      3.11677422	    -10.34240458	      0.31842013	      2.26692153	      1.07005135	      1.00865323	     12.99044857	     12.98763564	    -10.31816331	     15.22755065	      0.26577090	      8.65667488	      8.82261117	      0.00000000	    -13.94561036	    -19.49998394	    -16.44505543	     52.35983990	      0.91385160	     -6.04164783	    -13.39115695	      0.00000000
      0.02666667	      3.36213926	    -10.67045210	      0.20548912	      2.26553724	      1.06514671	      1.00918784	     13.03560867	     13.35770332	    -10.02497948	     17.14906554	      0.29930766	      8.06720018	      7.30665667	      0.00000000	    -13.13833158	    -20.00496859	    -15.56001284	     54.92930103	      0.95869716	     -5.48104435	    -14.98353476	      0.00000000
      0.03333333	      3.80012578	    -11.10043690	      0.11367126	      2.26407968	      1.06040118	      1.00962207	     12.89793305	     13.80925194	     -9.89076653	     19.20573875	      0.33520338	      7.95788627	      6.09215589	      0.00000000	    -12.53096456	    -20.62202452	    -14.76761068	     57.44373042	      1.00258223	     -4.86955145	    -16.24205553	      0.00000000
      0.04000000	      4.20168204	    -11.56785518	      0.09156813	      2.26245742	      1.05561716	      1.00988244	     12.83019990	     14.25848619	     -9.90784989	     21.36943613	      0.37296702	      8.24286771	      5.08328526	      0.00000000	    -11.76735952	    -21.27382636	    -13.85604914	     59.97281030	      1.04672300	     -4.21851661	    -17.31693711	      0.00000000
      0.04666667	      5.04708813	    -12.21292089	      0.20804943	      2.26091261	      1.05155292	      1.00985533	     12.14640357	     14.91164418	     -9.89604691	     23.30441584	      0.40673879	      8.83452541	      4.24474612	      0.00000000	    -11.48167578	    -22.11064444	    -12.98340888	     62.32708632	      1.08781287	     -3.62158369	    -18.17335354	      0.00000000
      0.05333333	      4.77053202	    -12.45133321	      0.14210315	      2.25870494	      1.04613117	      1.00991565	     12.99129957	     14.97736134	    -10.21014402	     25.96331609	      0.45314535	     10.11159332	      3.89719774	      0.00000000	     -9.63443319	    -22.44337573	    -11.69536575	     65.00202055	      1.13449928	     -2.83445401	    -18.91239823	      0.00000000
      0.06000000	      5.67704109	    -13.06126276	      0.25416742	      2.25680274	      1.04270066	      1.00961863	     12.11252464	     15.59900678	    -10.02958550	     27.73080451	      0.48399384	     10.92729129	      3.36381096	      0.00000000	     -9.27516903	    -23.16893358	    -10.78942919	     67.20037573	      1.17286781	     -2.37104317	    -19.52163847	      0.00000000
      0.06666667	      4.96420837	    -13.15338119	      0.25406566	      2.25437573	      1.03719510	      1.00928466	     13.39657153	     15.34741552	    -10.68682246	     30.45030031	      0.53145800	     13.06879265	      3.81513820	      0.00000000	     -6.64160529	    -23.22701532	     -9.11761514	     69.86795455	      1.21942585	     -1.37431406	    -19.94335797	      0.00000000
      0.07333333	      4.87965902	    -13.42284128	      0.31396476	      2.25209546	      1.03317395	      1.00876746	     13.60139152	     15.44091570	    -10.82622683	     32.36694568	      0.56490977	     14.64228142	      3.98093325	      0.00000000	     -4.81397114	    -23.44284580	     -7.71542838	     72.16780272	      1.25956577	     -0.58991919	    -20.21565208	      0.00000000
